<svg width="67" height="83" viewBox="0 0 67 83" fill="none" xmlns="http://www.w3.org/2000/svg">
<path d="M0 13.0212C0.000358777 2.68258 11.4848 -3.51909 20.1299 2.15113L48 20.4314V29.9988L15.7422 8.84058C12.4172 6.65992 8.00036 9.04507 8 13.0212V65.8445C8.00008 67.6712 8.6148 69.3586 9.65039 70.7087C9.89931 71.0948 10.2161 71.4452 10.5977 71.7419C11.0387 72.1462 11.5247 72.5023 12.0488 72.8005L24.4355 81.7996C24.6799 81.9771 24.9377 82.1232 25.2031 82.241L15.334 81.8308C6.76407 81.4737 0.000184007 74.4218 0 65.8445V13.0212Z" fill="black"/>
<path d="M56.5276 33.0283C59.7087 32.0398 63.0003 34.4139 63.0003 37.8066V70.9531C62.9999 80.1314 52.4217 85.2729 45.2044 79.6025L17.3079 57.6845C13.6399 54.8025 14.5201 49.0201 18.8792 47.3593L56.22 33.1337L56.5276 33.0283ZM25.0286 53.5771L50.1468 73.3125C52.115 74.8586 54.9999 73.456 55.0003 70.9531V42.1601L25.0286 53.5771Z" fill="black"/>
<circle cx="59" cy="20.355" r="8" fill="black"/>
</svg>
