<svg width="63" height="83" viewBox="0 0 63 83" fill="none" xmlns="http://www.w3.org/2000/svg">
<path d="M0 13.0212C0.000358777 2.68258 11.4848 -3.51909 20.1299 2.15113L48 20.4314V29.9988L15.7422 8.84058C12.4172 6.65992 8.00036 9.04507 8 13.0212V65.8445C8 67.6699 8.61418 69.3561 9.64844 70.7058C9.89764 71.0931 10.2151 71.4444 10.5977 71.7419C11.0387 72.1463 11.5247 72.5023 12.0488 72.8005L24.4355 81.8005C24.6796 81.9778 24.9371 82.1233 25.2021 82.241L15.334 81.8308C6.76396 81.4737 0 74.422 0 65.8445V13.0212Z" fill="black"/>
<path d="M63 65.8696C62.9998 75.0712 52.3747 80.2061 45.165 74.4888L18 52.9429V42.7329L50.1357 68.2202C52.102 69.7795 54.9998 68.379 55 65.8696V11.856H63V65.8696Z" fill="black"/>
</svg>
