<svg width="83" height="83" viewBox="0 0 83 83" fill="none" xmlns="http://www.w3.org/2000/svg">
<path d="M0 13.0212C0.000358777 2.68258 11.4848 -3.51909 20.1299 2.15113L48 20.4314V29.9988L15.7422 8.84058C12.4172 6.65992 8.00036 9.04507 8 13.0212V65.8445C8 67.6734 8.61644 69.3626 9.6543 70.7136C9.90194 71.0966 10.2164 71.4441 10.5947 71.739C11.0366 72.1445 11.5235 72.5016 12.0488 72.8005L24.4355 81.8005C24.6795 81.9778 24.9372 82.1233 25.2021 82.241L15.334 81.8308C6.76396 81.4737 0 74.422 0 65.8445V13.0212Z" fill="black"/>
<path d="M55 23.405C55.0001 19.3705 59.4987 17.0492 62.7646 19.238L63.0762 19.4636L80.9512 33.4148C83.5157 35.4166 83.5158 39.2958 80.9512 41.2976L63 55.3073V65.8698C62.9998 75.0714 52.3747 80.2063 45.165 74.489L18 52.9431V42.7331L50.1357 68.2204C52.102 69.7797 54.9998 68.3792 55 65.8698V23.405ZM63 45.1599L72.998 37.3562L63 29.5515V45.1599Z" fill="black"/>
</svg>
